# xmcd
#
# Track frame offsets: 
#        150
#        13050
#        23803
#        33231
#        41483
#        50465
#        50775
#        51075
#        60290
#        73428
#        87717
#        96844
#        106116
#        117326
#        127323
#        138486
#        146175
#        155040
#        166250
#        175539
#        188912
#        200362
#        210899
#        224038
#        234078
#        245232
#        258660
#        269746
#        280987
#        294650
#        307687
#
# Disc length: 4249 seconds
#
# Revision: 0
# Processed by: cddbd v1.5.2PL0 Copyright (c) Steve Scherf et al.
# Submitted via: ExactAudioCopy v1.1
#
DISCID=e010971f
DTITLE=Various Artist - The Bakersfield Sound (Bear Family) - Disc 5
DYEAR=2019
DGENRE=Country
TTITLE0=Buck Owens and His Buckaroos - Close Up The Honky Tonks (stereo)
TTITLE1=Merle Haggard and Bonnie Owens - Slowly But Surely (stereo)
TTITLE2=Bob Hortter - Working Overtime (mono)
TTITLE3=Jim Whitlock - S.O.S. (mono)
TTITLE4=Buck Owens and His Buckaroos - Fallin' For You (stereo)
TTITLE5=Merle Haggard - xx
TTITLE6=Merle Haggard - xx
TTITLE7=Merle Haggard - I'm Gonna Break Every Heart I Can (stereo)
TTITLE8=Tommy Duncan with Larry Thornton - I Wish I Hadn't Called You 
TTITLE8=(mono)
TTITLE9=Jim Ward - Red Wine (mono)
TTITLE10=Lewis Talley - More Wine, More Women, More Song (mono)
TTITLE11=Merle Haggard and Bonnie Owens - I'll Take A Chance (stereo)
TTITLE12=Don Rich and The Buckaroos - I'm Layin' It On The Line (stereo)
TTITLE13=Buck Owens and His Buckaroos - There Never Was A Fool (stereo)
TTITLE14=Doyle Holly and The Buckaroos - After You Leave Me (stereo)
TTITLE15=Dee Mize (Buddy Mize) - Just Leave My World Alone (stereo)
TTITLE16=Billy Mize - Walking My Fool (mono)
TTITLE17=Liz Anderson - (My Friends Are Gonna Be) Strangers (mono)
TTITLE18=Tommy Collins - If You Can't Bite, Don't Growl (stereo)
TTITLE19=Jeanie O'Neal - Alcohol and Tears (mono)
TTITLE20=Bobby Durham - Home Is Where I Hang My Head (stereo)
TTITLE21=Red Simpson - Jeannie With The Light Brown Cadillac (stereo)
TTITLE22=Merle Haggard and The Strangers - Swinging Doors (alt) (stereo)
TTITLE23=Kay Adams - Roll Out The Red Carpet (mono)
TTITLE24=Dick Curless and Kay Adams - Old Standby (stereo)
TTITLE25=Buck Owens and His Buckaroos - House Of Memories (mono)
TTITLE26=Buck Owens and His Buckaroos - I've Got A Tiger By The Tail (li
TTITLE26=ve) (stereo)
TTITLE27=Vicki Lester - Fool Me Again (mono)
TTITLE28=Ray Salter - The Bad Guy Gets The Girl (mono)
TTITLE29=Billy Mize - Pappy Was A Clever Man (mono)
TTITLE30=Jeanie O'Neal - Correspondence Course In Love (mono)
EXTD=
EXTT0=
EXTT1=
EXTT2=
EXTT3=
EXTT4=
EXTT5=
EXTT6=
EXTT7=
EXTT8=
EXTT9=
EXTT10=
EXTT11=
EXTT12=
EXTT13=
EXTT14=
EXTT15=
EXTT16=
EXTT17=
EXTT18=
EXTT19=
EXTT20=
EXTT21=
EXTT22=
EXTT23=
EXTT24=
EXTT25=
EXTT26=
EXTT27=
EXTT28=
EXTT29=
EXTT30=
PLAYORDER=
